<mxfile host="app.diagrams.net" modified="2024-07-20T03:07:22.841Z" agent="Mozilla/5.0 (Windows NT 10.0; Win64; x64; rv:126.0) Gecko/20100101 Firefox/126.0" etag="8HBRMWCWbDBACxPBbuWU" version="24.7.2" type="github">
  <diagram name="Page-1" id="tmTa74DvuVe0W2aihUYn">
    <mxGraphModel dx="928" dy="606" grid="1" gridSize="10" guides="1" tooltips="1" connect="1" arrows="1" fold="1" page="1" pageScale="1" pageWidth="827" pageHeight="1169" math="0" shadow="0">
      <root>
        <mxCell id="0" />
        <mxCell id="1" parent="0" />
        <mxCell id="5Wlh0Rlquvbvc7U6fsWG-1" value="User" style="shape=umlActor;verticalLabelPosition=bottom;verticalAlign=top;html=1;outlineConnect=0;" vertex="1" parent="1">
          <mxGeometry x="40" y="119" width="30" height="60" as="geometry" />
        </mxCell>
        <mxCell id="5Wlh0Rlquvbvc7U6fsWG-3" value="Create&amp;nbsp;&lt;div&gt;Account&lt;/div&gt;" style="ellipse;whiteSpace=wrap;html=1;" vertex="1" parent="1">
          <mxGeometry x="131" y="40" width="97" height="60" as="geometry" />
        </mxCell>
        <mxCell id="5Wlh0Rlquvbvc7U6fsWG-4" value="Login" style="ellipse;whiteSpace=wrap;html=1;" vertex="1" parent="1">
          <mxGeometry x="300" y="30" width="86" height="50" as="geometry" />
        </mxCell>
        <mxCell id="5Wlh0Rlquvbvc7U6fsWG-6" value="&lt;div&gt;Acquire Stock Data&lt;/div&gt;" style="ellipse;whiteSpace=wrap;html=1;" vertex="1" parent="1">
          <mxGeometry x="143" y="199" width="96" height="59" as="geometry" />
        </mxCell>
        <mxCell id="5Wlh0Rlquvbvc7U6fsWG-7" value="" style="endArrow=none;html=1;rounded=0;fontSize=12;startSize=8;endSize=8;curved=1;entryX=0;entryY=0;entryDx=0;entryDy=0;" edge="1" parent="1" target="5Wlh0Rlquvbvc7U6fsWG-6">
          <mxGeometry width="50" height="50" relative="1" as="geometry">
            <mxPoint x="78.5" y="174" as="sourcePoint" />
            <mxPoint x="140.5" y="199" as="targetPoint" />
          </mxGeometry>
        </mxCell>
        <mxCell id="5Wlh0Rlquvbvc7U6fsWG-11" value="Connect to Stock API" style="ellipse;whiteSpace=wrap;html=1;" vertex="1" parent="1">
          <mxGeometry x="450" y="30" width="91" height="60" as="geometry" />
        </mxCell>
        <mxCell id="5Wlh0Rlquvbvc7U6fsWG-14" value="&lt;div&gt;Sign in to&lt;/div&gt;&lt;div&gt;Previous account&lt;br&gt;&lt;/div&gt;" style="ellipse;whiteSpace=wrap;html=1;" vertex="1" parent="1">
          <mxGeometry x="130" y="100" width="109" height="70" as="geometry" />
        </mxCell>
        <mxCell id="5Wlh0Rlquvbvc7U6fsWG-19" value="&lt;div&gt;Save Data in File&lt;/div&gt;" style="ellipse;whiteSpace=wrap;html=1;" vertex="1" parent="1">
          <mxGeometry x="690" y="190" width="90" height="60" as="geometry" />
        </mxCell>
        <mxCell id="5Wlh0Rlquvbvc7U6fsWG-21" value="" style="endArrow=classic;html=1;rounded=0;" edge="1" parent="1">
          <mxGeometry width="50" height="50" relative="1" as="geometry">
            <mxPoint x="470.5" y="202" as="sourcePoint" />
            <mxPoint x="521" y="260" as="targetPoint" />
          </mxGeometry>
        </mxCell>
        <mxCell id="5Wlh0Rlquvbvc7U6fsWG-22" value="Make Prediction" style="ellipse;whiteSpace=wrap;html=1;" vertex="1" parent="1">
          <mxGeometry x="510" y="250" width="90" height="60" as="geometry" />
        </mxCell>
        <mxCell id="5Wlh0Rlquvbvc7U6fsWG-24" value="&lt;div&gt;Process Stock Data&lt;/div&gt;" style="ellipse;whiteSpace=wrap;html=1;" vertex="1" parent="1">
          <mxGeometry x="440" y="150" width="90" height="60" as="geometry" />
        </mxCell>
        <mxCell id="5Wlh0Rlquvbvc7U6fsWG-25" value="" style="endArrow=none;html=1;rounded=0;" edge="1" parent="1" source="5Wlh0Rlquvbvc7U6fsWG-1" target="5Wlh0Rlquvbvc7U6fsWG-26">
          <mxGeometry width="50" height="50" relative="1" as="geometry">
            <mxPoint x="100" y="300" as="sourcePoint" />
            <mxPoint x="60" y="199" as="targetPoint" />
          </mxGeometry>
        </mxCell>
        <mxCell id="5Wlh0Rlquvbvc7U6fsWG-26" value="User Submits Personal (local) CSV&amp;nbsp; file" style="ellipse;whiteSpace=wrap;html=1;" vertex="1" parent="1">
          <mxGeometry x="70" y="340" width="100" height="80" as="geometry" />
        </mxCell>
        <mxCell id="5Wlh0Rlquvbvc7U6fsWG-27" value="" style="endArrow=none;html=1;rounded=0;entryX=0.391;entryY=1.059;entryDx=0;entryDy=0;entryPerimeter=0;" edge="1" parent="1" target="5Wlh0Rlquvbvc7U6fsWG-6">
          <mxGeometry width="50" height="50" relative="1" as="geometry">
            <mxPoint x="140" y="340" as="sourcePoint" />
            <mxPoint x="190" y="290" as="targetPoint" />
          </mxGeometry>
        </mxCell>
        <mxCell id="5Wlh0Rlquvbvc7U6fsWG-28" value="" style="endArrow=classic;html=1;rounded=0;" edge="1" parent="1" target="5Wlh0Rlquvbvc7U6fsWG-4">
          <mxGeometry width="50" height="50" relative="1" as="geometry">
            <mxPoint x="220" y="119" as="sourcePoint" />
            <mxPoint x="270" y="69" as="targetPoint" />
          </mxGeometry>
        </mxCell>
        <mxCell id="5Wlh0Rlquvbvc7U6fsWG-29" value="" style="endArrow=classic;html=1;rounded=0;entryX=0;entryY=0.5;entryDx=0;entryDy=0;" edge="1" parent="1" target="5Wlh0Rlquvbvc7U6fsWG-4">
          <mxGeometry width="50" height="50" relative="1" as="geometry">
            <mxPoint x="228" y="70" as="sourcePoint" />
            <mxPoint x="278" y="20" as="targetPoint" />
          </mxGeometry>
        </mxCell>
        <mxCell id="5Wlh0Rlquvbvc7U6fsWG-30" value="" style="endArrow=classic;html=1;rounded=0;entryX=0.072;entryY=0.719;entryDx=0;entryDy=0;entryPerimeter=0;" edge="1" parent="1" target="5Wlh0Rlquvbvc7U6fsWG-3">
          <mxGeometry width="50" height="50" relative="1" as="geometry">
            <mxPoint x="60" y="119" as="sourcePoint" />
            <mxPoint x="110" y="69" as="targetPoint" />
          </mxGeometry>
        </mxCell>
        <mxCell id="5Wlh0Rlquvbvc7U6fsWG-32" value="" style="endArrow=classic;html=1;rounded=0;entryX=0.012;entryY=0.581;entryDx=0;entryDy=0;entryPerimeter=0;" edge="1" parent="1" target="5Wlh0Rlquvbvc7U6fsWG-14">
          <mxGeometry width="50" height="50" relative="1" as="geometry">
            <mxPoint x="70" y="142" as="sourcePoint" />
            <mxPoint x="120" y="92" as="targetPoint" />
          </mxGeometry>
        </mxCell>
        <mxCell id="5Wlh0Rlquvbvc7U6fsWG-33" value="" style="endArrow=classic;html=1;rounded=0;entryX=-0.004;entryY=0.347;entryDx=0;entryDy=0;entryPerimeter=0;" edge="1" parent="1" target="5Wlh0Rlquvbvc7U6fsWG-11">
          <mxGeometry width="50" height="50" relative="1" as="geometry">
            <mxPoint x="386" y="50" as="sourcePoint" />
            <mxPoint x="436" as="targetPoint" />
          </mxGeometry>
        </mxCell>
        <mxCell id="5Wlh0Rlquvbvc7U6fsWG-34" value="" style="endArrow=classic;html=1;rounded=0;entryX=1;entryY=0;entryDx=0;entryDy=0;" edge="1" parent="1" target="5Wlh0Rlquvbvc7U6fsWG-6">
          <mxGeometry width="50" height="50" relative="1" as="geometry">
            <mxPoint x="460" y="82" as="sourcePoint" />
            <mxPoint x="374.6399999999999" y="139.68799999999987" as="targetPoint" />
          </mxGeometry>
        </mxCell>
        <mxCell id="5Wlh0Rlquvbvc7U6fsWG-36" value="" style="endArrow=classic;html=1;rounded=0;entryX=-0.004;entryY=0.678;entryDx=0;entryDy=0;entryPerimeter=0;" edge="1" parent="1" target="5Wlh0Rlquvbvc7U6fsWG-24">
          <mxGeometry width="50" height="50" relative="1" as="geometry">
            <mxPoint x="239" y="229" as="sourcePoint" />
            <mxPoint x="289" y="179" as="targetPoint" />
          </mxGeometry>
        </mxCell>
        <mxCell id="5Wlh0Rlquvbvc7U6fsWG-37" value="" style="endArrow=classic;html=1;rounded=0;" edge="1" parent="1" target="5Wlh0Rlquvbvc7U6fsWG-19">
          <mxGeometry width="50" height="50" relative="1" as="geometry">
            <mxPoint x="600" y="270" as="sourcePoint" />
            <mxPoint x="650" y="220" as="targetPoint" />
          </mxGeometry>
        </mxCell>
        <mxCell id="5Wlh0Rlquvbvc7U6fsWG-38" value="" style="endArrow=classic;html=1;rounded=0;" edge="1" parent="1" target="5Wlh0Rlquvbvc7U6fsWG-39">
          <mxGeometry width="50" height="50" relative="1" as="geometry">
            <mxPoint x="580" y="310" as="sourcePoint" />
            <mxPoint x="610" y="380" as="targetPoint" />
          </mxGeometry>
        </mxCell>
        <mxCell id="5Wlh0Rlquvbvc7U6fsWG-39" value="&lt;div&gt;Return Data to GUI&lt;/div&gt;" style="ellipse;whiteSpace=wrap;html=1;" vertex="1" parent="1">
          <mxGeometry x="590" y="370" width="120" height="80" as="geometry" />
        </mxCell>
      </root>
    </mxGraphModel>
  </diagram>
</mxfile>
